<?xml version="1.0" encoding="utf-8"?>
<!-- Generator: Adobe Illustrator 13.0.0, SVG Export Plug-In . SVG Version: 6.00 Build 14948)  -->
<!DOCTYPE svg PUBLIC "-//W3C//DTD SVG 1.1//EN" "http://www.w3.org/Graphics/SVG/1.1/DTD/svg11.dtd">
<svg version="1.1" id="Layer_1" xmlns="http://www.w3.org/2000/svg" xmlns:xlink="http://www.w3.org/1999/xlink" x="0px" y="0px"
	 width="316px" height="316px" viewBox="0 0 506.679 506.679" enable-background="new 0 0 506.679 506.679"
	 xml:space="preserve">
<circle fill-rule="evenodd" clip-rule="evenodd" fill="#000062" cx="253.339" cy="253.339" r="250.819"/>
<circle fill="none" stroke="#FFFFFF" stroke-width="5.0409" stroke-miterlimit="3.8637" cx="253.339" cy="253.339" r="250.819"/>
<circle fill-rule="evenodd" clip-rule="evenodd" fill="#FFFFFF" cx="252.429" cy="251.924" r="184.921"/>
<g>
	<defs>
		<circle id="SVGID_1_" cx="252.429" cy="251.924" r="184.921"/>
	</defs>
	<clipPath id="SVGID_2_">
		<use xlink:href="#SVGID_1_"  overflow="visible"/>
	</clipPath>
	<path clip-path="url(#SVGID_2_)" fill-rule="evenodd" clip-rule="evenodd" fill="#000062" d="M152.37,411.364l88.962-73.88
		l49.759,6.031l55.79-57.294l58.806-4.523l30.178-29.316l-6.052,56.456l-6.032,18.093l-40.711,1.508l-66.345,61.817l-54.283,1.508
		l-54.282,45.232L152.37,411.364z M72.454,194.248l57.298-52.771l49.759,6.031l48.251-39.202l60.314-3.016l19.602-24.124
		c0,0,14.304,3.179,22.903,6.75c11.234,4.666,26.855,15.866,26.855,15.866l-40.711,39.202l-58.807,10.554l-52.774,40.709
		l-58.806,4.523l-80.941,82.153L72.454,194.248z"/>
	<path clip-path="url(#SVGID_2_)" fill="none" stroke="#000062" stroke-width="0.7259" stroke-miterlimit="3.8637" d="
		M152.37,411.364l88.962-73.88l49.759,6.031l55.79-57.294l58.806-4.523l30.178-29.316l-6.052,56.456l-6.032,18.093l-40.711,1.508
		l-66.345,61.817l-54.283,1.508l-54.282,45.232L152.37,411.364z M72.454,194.248l57.298-52.771l49.759,6.031l48.251-39.202
		l60.314-3.016l19.602-24.124c0,0,14.304,3.179,22.903,6.75c11.234,4.666,26.855,15.866,26.855,15.866l-40.711,39.202
		l-58.807,10.554l-52.774,40.709l-58.806,4.523l-80.941,82.153L72.454,194.248z"/>
	<path clip-path="url(#SVGID_2_)" fill-rule="evenodd" clip-rule="evenodd" fill="#D30006" d="M79.245,320.12l91.219-71.593
		l49.759,6.031l55.79-57.295l73.885-15.077l33.494-56.6c0,0,15.512,16.801,23.328,29.048c7.93,12.424,16.727,33.889,16.727,33.889
		l-52.439,46.435l-61.821,13.569l-63.329,52.771l-66.345,15.077l-56.691,71.522c0,0-17.005-18.021-25.529-31.249
		C88.685,343.292,79.245,320.12,79.245,320.12z"/>
	<path clip-path="url(#SVGID_2_)" fill="none" stroke="#D30006" stroke-width="0.7259" stroke-miterlimit="3.8637" d="
		M79.245,320.12l91.219-71.593l49.759,6.031l55.79-57.295l73.885-15.077l33.494-56.6c0,0,15.512,16.801,23.328,29.048
		c7.93,12.424,16.727,33.889,16.727,33.889l-52.439,46.435l-61.821,13.569l-63.329,52.771l-66.345,15.077l-56.691,71.522
		c0,0-17.005-18.021-25.529-31.249C88.685,343.292,79.245,320.12,79.245,320.12z"/>
</g>
<circle fill="none" stroke="#FFFFFF" stroke-width="6.9235" stroke-miterlimit="3.8636" cx="252.429" cy="251.924" r="184.921"/>
<text transform="matrix(-0.1219 -0.9925 1.2407 -0.1523 54.147 292.0952)" fill="#FFB200" font-family="'Palatino-Bold'" font-size="38.7731">A</text>
<text transform="matrix(0.0872 -0.9962 1.2453 0.1089 50.355 248.7993)" fill="#FFB200" font-family="'Palatino-Bold'" font-size="38.7731">C</text>
<text transform="matrix(0.2079 -0.9781 1.2227 0.2599 52.9619 220.4321)" fill="#FFB200" font-family="'Palatino-Bold'" font-size="31.3877">A</text>
<text transform="matrix(0.3256 -0.9455 1.1819 0.4069 58.438 195.8115)" fill="#FFB200" font-family="'Palatino-Bold'" font-size="31.3878">L</text>
<text transform="matrix(0.4067 -0.9135 1.1419 0.5084 64.9185 177.5645)" fill="#FFB200" font-family="'Palatino-Bold'" font-size="31.3874">I</text>
<text transform="matrix(0.4695 -0.883 1.1037 0.5868 69.6489 166.4082)" fill="#FFB200" font-family="'Palatino-Bold'" font-size="31.3873">F</text>
<text transform="matrix(0.5446 -0.8387 1.0484 0.6808 77.7637 150.665)" fill="#FFB200" font-family="'Palatino-Bold'" font-size="31.3876">O</text>
<text transform="matrix(0.6691 -0.7431 0.9289 0.8364 93.1069 127.8252)" fill="#FFB200" font-family="'Palatino-Bold'" font-size="31.3877">R</text>
<text transform="matrix(0.7431 -0.6691 0.8364 0.9289 108.3516 110.3477)" fill="#FFB200" font-family="'Palatino-Bold'" font-size="31.3877">N</text>
<text transform="matrix(0.809 -0.5878 0.7347 1.0113 128.4868 92.8975)" fill="#FFB200" font-family="'Palatino-Bold'" font-size="31.3878">I</text>
<text transform="matrix(0.8572 -0.515 0.6438 1.0715 138.2852 85.2993)" fill="#FFB200" font-family="'Palatino-Bold'" font-size="31.3874">A</text>
<text transform="matrix(0.9455 -0.3256 0.407 1.1819 170.0015 67.2876)" fill="#FFB200" font-family="'Palatino-Bold'" font-size="38.7731">D</text>
<text transform="matrix(0.9703 -0.2419 0.3024 1.2129 200.521 57.1094)" fill="#FFB200" font-family="'Palatino-Bold'" font-size="31.3877">I</text>
<text transform="matrix(0.9903 -0.1392 0.174 1.2378 212.8242 53.9849)" fill="#FFB200" font-family="'Palatino-Bold'" font-size="31.3875">S</text>
<text transform="matrix(0.9994 -0.0349 0.0436 1.2492 232.2847 51.0488)" fill="#FFB200" font-family="'Palatino-Bold'" font-size="31.3875">T</text>
<text transform="matrix(0.9994 0.0349 -0.0436 1.2492 253.1455 50.3481)" fill="#FFB200" font-family="'Palatino-Bold'" font-size="31.3875">I</text>
<text transform="matrix(0.9903 0.1392 -0.174 1.2378 265.8818 50.3589)" fill="#FFB200" font-family="'Palatino-Bold'" font-size="31.3875">N</text>
<text transform="matrix(0.9659 0.2588 -0.3235 1.2074 292.5986 54.0098)" fill="#FFB200" font-family="'Palatino-Bold'" font-size="31.3879">G</text>
<text transform="matrix(0.9272 0.3746 -0.4682 1.159 318.5352 61.2207)" fill="#FFB200" font-family="'Palatino-Bold'" font-size="31.3878">U</text>
<text transform="matrix(0.8829 0.4695 -0.5868 1.1037 341.3916 71.0386)" fill="#FFB200" font-family="'Palatino-Bold'" font-size="31.3875">I</text>
<text transform="matrix(0.848 0.5299 -0.6624 1.0601 352.1387 76.644)" fill="#FFB200" font-family="'Palatino-Bold'" font-size="31.3878">S</text>
<text transform="matrix(0.7771 0.6293 -0.7866 0.9714 369.1221 87.1973)" fill="#FFB200" font-family="'Palatino-Bold'" font-size="31.3877">H</text>
<text transform="matrix(0.6946 0.7193 -0.8992 0.8683 389.9365 104.3394)" fill="#FFB200" font-family="'Palatino-Bold'" font-size="31.3882">E</text>
<text transform="matrix(0.6018 0.7986 -0.9983 0.7523 404.0332 118.5122)" fill="#FFB200" font-family="'Palatino-Bold'" font-size="31.388">D</text>
<text transform="matrix(0.4384 0.8988 -1.1235 0.548 427.3672 151.0972)" fill="#FFB200" font-family="'Palatino-Bold'" font-size="38.7731">S</text>
<text transform="matrix(0.3255 0.9455 -1.1819 0.4069 438.1914 172.7764)" fill="#FFB200" font-family="'Palatino-Bold'" font-size="31.3882">C</text>
<text transform="matrix(0.2079 0.9781 -1.2227 0.2599 446.2178 194.835)" fill="#FFB200" font-family="'Palatino-Bold'" font-size="31.3881">H</text>
<text transform="matrix(0.0872 0.9962 -1.2452 0.1089 451.9814 221.1445)" fill="#FFB200" font-family="'Palatino-Bold'" font-size="31.3882">O</text>
<text transform="matrix(-0.0349 0.9994 -1.2492 -0.0436 454.1855 247.9961)" fill="#FFB200" font-family="'Palatino-Bold'" font-size="31.3879">O</text>
<text transform="matrix(-0.1564 0.9877 -1.2346 -0.1955 452.8799 274.8901)" fill="#FFB200" font-family="'Palatino-Bold'" font-size="31.3879">L </text>
<polygon fill-rule="evenodd" clip-rule="evenodd" fill="#FFB200" points="182.799,125.033 210.22,177.165 158.401,230.806 
	241.978,213.419 282.045,304.686 293.219,212.805 377.038,187.081 296.508,164.37 299.322,90.622 247.667,143.504 "/>
<polygon fill="none" stroke="#FFB200" stroke-width="1.3067" stroke-miterlimit="3.8637" points="182.799,125.033 210.22,177.165 
	158.401,230.806 241.978,213.419 282.045,304.686 293.219,212.805 377.038,187.081 296.508,164.37 299.322,90.622 247.667,143.504 
	"/>
</svg>
